<svg width="402" height="96" viewBox="0 0 402 96" fill="none" xmlns="http://www.w3.org/2000/svg">
<g clip-path="url(#clip0_920_17926)">
<g clip-path="url(#clip1_920_17926)">
<path d="M58.315 94.8888C54.9921 95.6165 51.5403 96 47.999 96C38.2791 96 29.2339 93.1109 21.6754 88.1446C19.7991 85.4608 18.9573 83.9834 18.3432 82.9057C18.0389 82.3717 17.7906 81.9359 17.5 81.5C14.6367 76.8951 13.1386 70.9804 12.812 64.0308C11.8 42.4973 24.8867 28.7466 38.2557 26.4896C46.7301 25.0589 53.4649 26.5078 58.6304 29.2702C54.0636 27.9999 48.6197 27.9235 42.4136 29.7001C27.3688 34.5492 22.3535 49.2945 24.5031 65.6231C28.2546 86.0836 48.316 93.4169 58.315 94.8888Z" fill="url(#paint0_linear_920_17926)"/>
<path d="M15.4646 83.2919C12.6661 78.3228 10.1319 70.9083 9.81527 64.1716C8.74099 41.3115 22.7111 26.0714 37.7563 23.5315C58.2644 20.0691 69.6659 32.2102 73.5964 41.2215C73.7608 41.1106 73.8276 40.8912 73.7409 40.7023C67.2784 26.6499 53.9121 17 38.4723 17C20.9408 17 5.29764 29.576 0 48.2663C0.0752377 62.116 6.01599 74.5771 15.4646 83.2919Z" fill="url(#paint1_linear_920_17926)"/>
<path d="M74.999 87.6919C71.5367 90.0517 67.7497 91.9703 63.7188 93.3668C61.7835 93.0298 59.639 92.61 58.1292 92.3145C57.4138 92.1744 56.8406 92.0622 56.5 92C47.3693 90.3322 31.0439 84.4486 27.4674 65.1561C26.4569 57.3987 27.1806 50.2579 29.7435 44.5936C32.2684 39.0132 36.6259 34.7355 43.2713 32.5757C50.9952 30.4714 57.3958 31.5143 62.1499 34.0677C60.9796 33.8209 59.77 33.6915 58.5322 33.6915C48.2448 33.6915 39.9053 42.6267 39.9053 53.6488C39.9053 58.0499 41.2349 62.1183 43.4874 65.4179C43.4874 65.4179 49.9351 77.5974 67.4874 76.5088C83.1378 75.5382 91.2652 61.5 92.2338 56.3148C92.7372 53.62 93.0004 50.8408 93.0004 48C93.0004 23.1472 72.8532 3 48.0004 3C29.1942 3 13.0825 14.5362 6.35581 30.9181C4.08371 33.878 2.12727 37.1594 0.550781 40.7077C4.06379 17.6588 23.9699 0 48.0004 0C74.5101 0 96.0004 21.4903 96.0004 48C96.0004 64.4986 87.6764 79.0522 74.999 87.6919Z" fill="url(#paint2_linear_920_17926)"/>
</g>
<path d="M128 94H144.637V68.4174C146.133 70.1066 147.971 71.471 150.15 72.5106C152.362 73.5501 155.127 74.0699 158.444 74.0699C164.169 74.0699 168.82 72.0071 172.398 67.8814C175.976 63.7557 177.765 58.1843 177.765 51.1674V49.6081C177.765 42.4612 176.025 36.9223 172.545 32.9915C169.064 29.0607 164.446 27.0953 158.688 27.0953C155.403 27.0953 152.508 27.7288 150.004 28.9958C147.499 30.2627 145.645 31.8383 144.442 33.7225H144.296V28.2648H128V94ZM144.637 57.2585V44.053C145.19 42.5911 146.15 41.3242 147.516 40.2521C148.882 39.1476 150.573 38.5953 152.59 38.5953C155.387 38.5953 157.469 39.5537 158.835 41.4703C160.233 43.3545 160.933 45.9371 160.933 49.2182V51.8008C160.933 55.0169 160.233 57.6645 158.835 59.7436C157.469 61.7903 155.354 62.8136 152.492 62.8136C150.573 62.8136 148.931 62.2613 147.564 61.1568C146.198 60.0198 145.223 58.7203 144.637 57.2585Z" fill="#333333"/>
<path d="M183.717 73.0953H200.842V46.8792C202.078 44.6377 203.737 42.851 205.819 41.5191C207.9 40.1547 209.998 39.4725 212.113 39.4725C213.186 39.4725 214.162 39.5374 215.04 39.6674C215.918 39.7648 216.65 39.9435 217.235 40.2034V28.0212C216.91 27.8912 216.308 27.7775 215.43 27.6801C214.552 27.5501 213.625 27.4852 212.649 27.4852C210.015 27.4852 207.673 28.1349 205.624 29.4343C203.607 30.7338 201.948 32.423 200.647 34.5021H200.598V28.2648H183.717V73.0953Z" fill="#333333"/>
<path d="M221.724 73.0953H238.703V28.2648H221.724V73.0953ZM220.895 12.5254C220.895 14.8644 221.691 16.8785 223.285 18.5678C224.879 20.2246 227.172 21.053 230.165 21.053C233.157 21.053 235.466 20.2246 237.093 18.5678C238.751 16.8785 239.581 14.8482 239.581 12.4767C239.581 10.0727 238.784 8.07486 237.19 6.48305C235.596 4.89124 233.287 4.09534 230.262 4.09534C227.27 4.09534 224.96 4.90749 223.334 6.53178C221.708 8.12359 220.895 10.1215 220.895 12.5254Z" fill="#333333"/>
<path d="M247.046 73.0953H263.731V44.9301C264.48 43.3383 265.439 42.0226 266.61 40.9831C267.814 39.911 269.245 39.375 270.903 39.375C272.757 39.375 274.189 39.8785 275.197 40.8856C276.238 41.8927 276.758 43.6631 276.758 46.197V73.0953H293.493V44.9301C294.241 43.3058 295.217 41.9739 296.42 40.9343C297.624 39.8948 299.055 39.375 300.714 39.375C302.568 39.375 303.999 39.8785 305.007 40.8856C306.015 41.8602 306.52 43.6307 306.52 46.197V73.0953H323.254V43.3708C323.254 37.5233 321.904 33.3489 319.205 30.8475C316.505 28.3136 312.911 27.0466 308.422 27.0466C304.877 27.0466 301.673 27.7775 298.811 29.2394C295.949 30.6688 293.656 32.6504 291.932 35.1843H291.834C290.956 32.5205 289.33 30.5064 286.955 29.1419C284.581 27.7775 281.751 27.0953 278.466 27.0953C275.083 27.0953 272.139 27.7938 269.635 29.1907C267.13 30.5876 265.098 32.488 263.536 34.8919H263.39V28.3136H247.046V73.0953Z" fill="#333333"/>
<path d="M329.011 60.2309C329.011 64.649 330.394 68.0113 333.158 70.3178C335.956 72.5918 339.794 73.7288 344.673 73.7288C348.771 73.7288 352.17 73.0304 354.87 71.6335C357.602 70.2041 359.521 68.6123 360.627 66.8581C360.757 68.06 360.952 69.197 361.212 70.2691C361.505 71.3411 361.912 72.2832 362.432 73.0953H378.874V72.4131C378.223 71.1787 377.736 69.7331 377.41 68.0763C377.085 66.4195 376.922 64.649 376.922 62.7648V43.2733C376.922 37.5883 375.133 33.4788 371.556 30.9449C367.978 28.3785 362.546 27.0953 355.26 27.0953C348.072 27.0953 342.412 28.411 338.281 31.0424C334.183 33.6412 332.134 37.101 332.134 41.4216V42.6398L347.307 42.6886V41.6653C347.307 39.976 347.877 38.6766 349.015 37.7669C350.186 36.8249 351.861 36.3538 354.04 36.3538C356.252 36.3538 357.846 36.8898 358.822 37.9619C359.797 39.0339 360.285 40.577 360.285 42.5911V45.4661H348.82C342.802 45.4661 337.989 46.8143 334.378 49.5106C330.8 52.1744 329.011 55.7479 329.011 60.2309ZM345.453 59.0127C345.453 57.0311 346.169 55.6342 347.6 54.822C349.031 54.0099 351.227 53.6038 354.187 53.6038H360.285V57.0636C360.285 59.0127 359.391 60.7669 357.602 62.3263C355.845 63.8856 353.878 64.6653 351.698 64.6653C349.682 64.6653 348.137 64.1942 347.063 63.2521C345.99 62.31 345.453 60.8969 345.453 59.0127Z" fill="#333333"/>
<path d="M385.168 73.0953H402V2H385.168V73.0953Z" fill="#333333"/>
</g>
<defs>
<linearGradient id="paint0_linear_920_17926" x1="29.976" y1="39.7668" x2="29.9028" y2="82.4271" gradientUnits="userSpaceOnUse">
<stop offset="0.0297309" stop-color="#F14949"/>
<stop offset="1" stop-color="#AE2B71"/>
</linearGradient>
<linearGradient id="paint1_linear_920_17926" x1="23.4413" y1="19.5067" x2="21.0645" y2="62.1791" gradientUnits="userSpaceOnUse">
<stop stop-color="#FA9A43"/>
<stop offset="1" stop-color="#F14949"/>
</linearGradient>
<linearGradient id="paint2_linear_920_17926" x1="56.9999" y1="95" x2="57.1318" y2="45.5003" gradientUnits="userSpaceOnUse">
<stop stop-color="#5B12A4"/>
<stop offset="1" stop-color="#AE2B71"/>
</linearGradient>
<clipPath id="clip0_920_17926">
<rect width="402" height="96" fill="white"/>
</clipPath>
<clipPath id="clip1_920_17926">
<rect width="96" height="96" fill="white"/>
</clipPath>
</defs>
</svg>
